<svg width="1600" height="1000" viewBox="0 0 1600 1000" fill="none" xmlns="http://www.w3.org/2000/svg">
<rect width="1600" height="1000" fill="#0A0E17"/>
<rect x="50" y="50" width="1500" height="900" rx="36" fill="url(#bg)" stroke="rgba(255,255,255,0.12)"/>
<circle cx="1320" cy="180" r="220" fill="url(#glow)"/>
<circle cx="280" cy="820" r="180" fill="url(#glow2)"/>
<rect x="120" y="238" width="680" height="430" rx="24" fill="#111827" stroke="#2B3347"/>
<rect x="150" y="278" width="300" height="20" rx="10" fill="#8B5CFF" fill-opacity="0.9"/>
<rect x="150" y="323" width="460" height="16" rx="8" fill="#AAB7FF" fill-opacity="0.35"/>
<rect x="150" y="358" width="410" height="16" rx="8" fill="#AAB7FF" fill-opacity="0.25"/>
<rect x="150" y="418" width="250" height="160" rx="16" fill="#141C2B" stroke="#39435D"/>
<rect x="425" y="418" width="330" height="160" rx="16" fill="#141C2B" stroke="#39435D"/>
<rect x="455" y="453" width="210" height="14" rx="7" fill="#8B5CFF"/>
<rect x="455" y="486" width="250" height="12" rx="6" fill="#AAB7FF" fill-opacity="0.3"/>
<rect x="455" y="514" width="190" height="12" rx="6" fill="#AAB7FF" fill-opacity="0.2"/>
<rect x="860" y="258" width="610" height="250" rx="28" fill="#121826" stroke="#303A55"/>
<rect x="900" y="308" width="210" height="18" rx="9" fill="#8B5CFF"/>
<rect x="900" y="346" width="420" height="14" rx="7" fill="#AAB7FF" fill-opacity="0.28"/>
<rect x="900" y="377" width="370" height="14" rx="7" fill="#AAB7FF" fill-opacity="0.22"/>
<rect x="900" y="426" width="140" height="42" rx="14" fill="#8B5CFF" fill-opacity="0.22" stroke="#8B5CFF"/>
<rect x="1060" y="426" width="140" height="42" rx="14" fill="#151C2C" stroke="#39435D"/>
<rect x="1220" y="426" width="170" height="42" rx="14" fill="#151C2C" stroke="#39435D"/>
<rect x="860" y="558" width="610" height="320" rx="28" fill="#121826" stroke="#303A55"/>
<rect x="900" y="608" width="250" height="18" rx="9" fill="#8B5CFF"/>
<rect x="900" y="650" width="520" height="12" rx="6" fill="#AAB7FF" fill-opacity="0.25"/>
<rect x="900" y="680" width="470" height="12" rx="6" fill="#AAB7FF" fill-opacity="0.2"/>
<rect x="900" y="733" width="520" height="100" rx="18" fill="#151C2C" stroke="#39435D"/>
<path d="M180 808H760" stroke="#AAB7FF" stroke-opacity="0.16" stroke-width="2"/>
<rect x="180" y="838" width="160" height="76" rx="18" fill="#151C2C" stroke="#39435D"/>
<rect x="360" y="838" width="160" height="76" rx="18" fill="#151C2C" stroke="#39435D"/>
<rect x="540" y="838" width="160" height="76" rx="18" fill="#151C2C" stroke="#39435D"/>
<text x="150" y="118" fill="white" font-size="40" font-family="Pretendard, Arial, sans-serif" font-weight="700">전자문서 · 웹문서 · PM문서 운영</text>
<text x="150" y="198" fill="#D9D6FF" font-size="28" font-family="Pretendard, Arial, sans-serif">실무형 문서 체계</text>
<defs>
<linearGradient id="bg" x1="130" y1="120" x2="1490" y2="920" gradientUnits="userSpaceOnUse">
<stop stop-color="#101626"/>
<stop offset="1" stop-color="#0C1120"/>
</linearGradient>
<radialGradient id="glow" cx="0" cy="0" r="1" gradientUnits="userSpaceOnUse" gradientTransform="translate(1320 180) rotate(90) scale(220)">
<stop stop-color="#8B5CFF" stop-opacity="0.35"/>
<stop offset="1" stop-color="#8B5CFF" stop-opacity="0"/>
</radialGradient>
<radialGradient id="glow2" cx="0" cy="0" r="1" gradientUnits="userSpaceOnUse" gradientTransform="translate(280 820) rotate(90) scale(180)">
<stop stop-color="#6F8CFF" stop-opacity="0.22"/>
<stop offset="1" stop-color="#6F8CFF" stop-opacity="0"/>
</radialGradient>
</defs>
</svg>
